<svg width="550" height="423" viewBox="0 0 550 423" fill="none" xmlns="http://www.w3.org/2000/svg">
<path d="M126.642 292.741L169.225 225.713L73.8596 165.014L24.6103 242.535L103.49 292.741H126.642Z" fill="#F0F0F0"/>
<path d="M186.986 313.651H81.5068V292.398H186.986V313.651ZM82.8767 312.28H185.616V293.769H82.8767V312.28Z" fill="#3F3D56"/>
<path d="M173.973 309.88C177.755 309.88 180.822 306.811 180.822 303.024C180.822 299.238 177.755 296.169 173.973 296.169C170.19 296.169 167.123 299.238 167.123 303.024C167.123 306.811 170.19 309.88 173.973 309.88Z" fill="#0F7173"/>
<path d="M154.795 309.88C158.577 309.88 161.644 306.811 161.644 303.024C161.644 299.238 158.577 296.169 154.795 296.169C151.012 296.169 147.945 299.238 147.945 303.024C147.945 306.811 151.012 309.88 154.795 309.88Z" fill="#0F7173"/>
<path d="M135.616 309.88C139.399 309.88 142.466 306.811 142.466 303.024C142.466 299.238 139.399 296.169 135.616 296.169C131.834 296.169 128.767 299.238 128.767 303.024C128.767 306.811 131.834 309.88 135.616 309.88Z" fill="#0F7173"/>
<path d="M116.438 309.88C120.221 309.88 123.288 306.811 123.288 303.024C123.288 299.238 120.221 296.169 116.438 296.169C112.656 296.169 109.589 299.238 109.589 303.024C109.589 306.811 112.656 309.88 116.438 309.88Z" fill="#0F7173"/>
<path d="M97.2603 309.88C101.043 309.88 104.11 306.811 104.11 303.024C104.11 299.238 101.043 296.169 97.2603 296.169C93.4775 296.169 90.4109 299.238 90.4109 303.024C90.4109 306.811 93.4775 309.88 97.2603 309.88Z" fill="#0F7173"/>
<path d="M312.329 77.47V25.3663H338.356V0H210.959V127.517H319.863V115.049C319.863 112.725 320.32 110.424 321.209 108.277C322.097 106.13 323.4 104.179 325.042 102.535C326.684 100.892 328.633 99.5883 330.778 98.6989C332.923 97.8095 335.222 97.3517 337.544 97.3517H338.356V77.47H312.329Z" fill="#F0F0F0"/>
<path d="M453.425 329.076H368.493V346.901H453.425V329.076Z" fill="#0F7173"/>
<path d="M471.918 241.323H347.26V257.776H471.918V241.323Z" fill="#F0F0F0"/>
<path d="M532.877 421.629H0V423H532.877V421.629Z" fill="#3F3D56"/>
<path d="M493.278 423H337.544C332.675 422.994 328.007 421.056 324.564 417.609C321.12 414.163 319.184 409.491 319.178 404.617V115.049C319.184 110.176 321.12 105.503 324.563 102.057C328.007 98.6103 332.675 96.6717 337.544 96.6661H493.278C498.147 96.6717 502.815 98.6103 506.258 102.057C509.702 105.503 511.638 110.176 511.644 115.049V404.617C511.638 409.491 509.702 414.163 506.258 417.609C502.815 421.056 498.147 422.994 493.278 423ZM337.544 98.0373C333.038 98.0424 328.718 99.8364 325.532 103.026C322.345 106.215 320.553 110.539 320.548 115.049V404.617C320.553 409.127 322.345 413.451 325.532 416.64C328.718 419.83 333.038 421.624 337.544 421.629H493.278C497.784 421.624 502.104 419.83 505.29 416.64C508.477 413.451 510.269 409.127 510.274 404.617V115.049C510.269 110.539 508.477 106.215 505.29 103.026C502.104 99.8364 497.784 98.0424 493.278 98.0373H337.544Z" fill="#3F3D56"/>
<path d="M396.918 110.378C396.105 110.378 395.31 110.136 394.635 109.684C393.959 109.232 393.432 108.59 393.121 107.838C392.81 107.087 392.729 106.26 392.887 105.462C393.046 104.664 393.437 103.931 394.012 103.356C394.587 102.78 395.319 102.388 396.116 102.23C396.913 102.071 397.74 102.153 398.49 102.464C399.241 102.775 399.883 103.302 400.335 103.979C400.786 104.655 401.027 105.451 401.027 106.264C401.026 107.355 400.593 108.4 399.822 109.172C399.052 109.943 398.007 110.376 396.918 110.378ZM396.918 103.522C396.376 103.522 395.846 103.683 395.396 103.984C394.945 104.285 394.594 104.714 394.387 105.215C394.179 105.716 394.125 106.267 394.231 106.799C394.336 107.331 394.597 107.82 394.981 108.203C395.364 108.587 395.852 108.848 396.383 108.954C396.915 109.06 397.466 109.005 397.966 108.798C398.467 108.59 398.895 108.239 399.196 107.788C399.497 107.337 399.658 106.807 399.658 106.264C399.657 105.537 399.368 104.84 398.854 104.326C398.341 103.812 397.644 103.523 396.918 103.522Z" fill="#3F3D56"/>
<path d="M437.329 105.579H407.192V106.95H437.329V105.579Z" fill="#3F3D56"/>
<path d="M499.315 116.548V171.394C484.783 171.393 470.846 165.615 460.57 155.329C450.294 145.044 444.521 131.094 444.521 116.548H499.315Z" fill="#0F7173"/>
<path d="M500 404.489H330.822V115.862H500V404.489ZM332.192 403.118H498.63V117.233H332.192V403.118Z" fill="#3F3D56"/>
<path opacity="0.1" d="M459.589 167.966C469.803 167.966 478.082 159.679 478.082 149.455C478.082 139.232 469.803 130.945 459.589 130.945C449.376 130.945 441.096 139.232 441.096 149.455C441.096 159.679 449.376 167.966 459.589 167.966Z" fill="black"/>
<path d="M456.849 170.023C467.063 170.023 475.342 161.735 475.342 151.512C475.342 141.289 467.063 133.002 456.849 133.002C446.636 133.002 438.356 141.289 438.356 151.512C438.356 161.735 446.636 170.023 456.849 170.023Z" fill="#0F7173"/>
<path d="M364.384 127.517H338.356V137.115H364.384V127.517Z" fill="#3F3D56"/>
<path d="M378.767 218.699H352.74V228.297H378.767V218.699Z" fill="#3F3D56"/>
<path d="M478.767 254.348H352.74V236.523H478.767V254.348ZM354.11 252.977H477.397V237.895H354.11V252.977Z" fill="#3F3D56"/>
<path d="M471.918 293.426H347.26V309.88H471.918V293.426Z" fill="#F0F0F0"/>
<path d="M378.767 270.802H352.74V280.4H378.767V270.802Z" fill="#3F3D56"/>
<path d="M478.767 306.452H352.74V288.627H478.767V306.452ZM354.11 305.081H477.397V289.998H354.11V305.081Z" fill="#3F3D56"/>
<path d="M458.904 342.788H372.603V323.592H458.904V342.788ZM373.973 341.417H457.534V324.963H373.973V341.417Z" fill="#3F3D56"/>
<path d="M475.343 247.493C475.342 248.904 474.907 250.281 474.096 251.436C473.285 252.59 472.138 253.466 470.811 253.944C469.484 254.421 468.042 254.478 466.682 254.105C465.322 253.732 464.111 252.948 463.212 251.86L463.206 251.853C462.551 251.058 462.083 250.126 461.838 249.125C461.593 248.124 461.576 247.081 461.79 246.073C462.003 245.065 462.44 244.118 463.069 243.303C463.698 242.487 464.503 241.824 465.423 241.363C466.343 240.901 467.356 240.654 468.385 240.638C469.414 240.622 470.434 240.839 471.368 241.271C472.302 241.704 473.126 242.342 473.78 243.138C474.434 243.934 474.9 244.867 475.144 245.868C475.144 245.869 475.144 245.87 475.144 245.871C475.145 245.871 475.145 245.872 475.146 245.873C475.147 245.873 475.147 245.874 475.148 245.874C475.149 245.875 475.15 245.875 475.151 245.875C475.277 246.405 475.342 246.948 475.343 247.493Z" fill="#0F7173"/>
<path opacity="0.1" d="M475.342 247.493C475.342 248.904 474.907 250.281 474.096 251.436C473.285 252.59 472.138 253.466 470.811 253.944C469.484 254.421 468.042 254.478 466.682 254.105C465.322 253.732 464.111 252.948 463.212 251.86L463.206 251.853C463.079 251.323 463.015 250.78 463.014 250.235C463.014 248.824 463.449 247.447 464.26 246.292C465.071 245.138 466.218 244.262 467.545 243.784C468.872 243.306 470.314 243.25 471.674 243.623C473.034 243.996 474.246 244.78 475.144 245.868C475.144 245.869 475.144 245.87 475.144 245.871C475.145 245.871 475.145 245.872 475.146 245.873C475.146 245.873 475.147 245.874 475.148 245.874C475.149 245.875 475.15 245.875 475.151 245.875C475.277 246.405 475.341 246.948 475.342 247.493Z" fill="black"/>
<path d="M471.233 258.462C475.016 258.462 478.082 255.392 478.082 251.606C478.082 247.82 475.016 244.75 471.233 244.75C467.45 244.75 464.384 247.82 464.384 251.606C464.384 255.392 467.45 258.462 471.233 258.462Z" fill="#0F7173"/>
<path d="M475.343 299.596C475.342 301.008 474.907 302.385 474.096 303.539C473.285 304.694 472.138 305.57 470.811 306.048C469.484 306.525 468.042 306.581 466.682 306.208C465.322 305.835 464.111 305.051 463.212 303.964L463.206 303.957C462.551 303.162 462.083 302.229 461.838 301.229C461.593 300.228 461.576 299.185 461.79 298.177C462.003 297.169 462.44 296.222 463.069 295.407C463.698 294.591 464.503 293.928 465.423 293.467C466.343 293.005 467.356 292.757 468.385 292.742C469.414 292.726 470.434 292.942 471.368 293.375C472.302 293.808 473.126 294.446 473.78 295.242C474.434 296.038 474.9 296.971 475.144 297.972C475.144 297.973 475.144 297.973 475.144 297.974C475.145 297.975 475.145 297.976 475.146 297.977C475.147 297.977 475.147 297.978 475.148 297.978C475.149 297.978 475.15 297.979 475.151 297.978C475.277 298.509 475.342 299.051 475.343 299.596Z" fill="#0F7173"/>
<path opacity="0.1" d="M475.342 299.596C475.342 301.008 474.907 302.385 474.096 303.539C473.285 304.694 472.138 305.57 470.811 306.048C469.484 306.525 468.042 306.581 466.682 306.208C465.322 305.835 464.111 305.051 463.212 303.964L463.206 303.957C463.079 303.427 463.015 302.884 463.014 302.339C463.014 300.927 463.449 299.55 464.26 298.396C465.071 297.241 466.218 296.365 467.545 295.888C468.872 295.41 470.314 295.354 471.674 295.727C473.034 296.1 474.246 296.884 475.144 297.972C475.144 297.973 475.144 297.973 475.144 297.974C475.145 297.975 475.145 297.976 475.146 297.977C475.146 297.977 475.147 297.978 475.148 297.978C475.149 297.978 475.15 297.979 475.151 297.978C475.277 298.509 475.341 299.051 475.342 299.596Z" fill="black"/>
<path d="M471.233 310.566C475.016 310.566 478.082 307.496 478.082 303.71C478.082 299.924 475.016 296.854 471.233 296.854C467.45 296.854 464.384 299.924 464.384 303.71C464.384 307.496 467.45 310.566 471.233 310.566Z" fill="#0F7173"/>
<path d="M356.164 32.9076H320.548V68.5575H356.164V32.9076Z" fill="#F0F0F0"/>
<path d="M459.589 58.9595C457.963 58.9595 456.374 58.477 455.023 57.573C453.671 56.669 452.618 55.3842 451.995 53.8809C451.373 52.3776 451.211 50.7235 451.528 49.1276C451.845 47.5317 452.628 46.0658 453.777 44.9153C454.927 43.7647 456.391 42.9812 457.986 42.6638C459.58 42.3463 461.233 42.5092 462.734 43.1319C464.236 43.7546 465.52 44.8091 466.423 46.162C467.326 47.5149 467.808 49.1055 467.808 50.7326C467.806 52.9137 466.939 55.0049 465.398 56.5472C463.857 58.0895 461.768 58.9571 459.589 58.9595ZM459.589 43.8768C458.234 43.8768 456.91 44.2789 455.784 45.0322C454.657 45.7856 453.78 46.8563 453.261 48.109C452.743 49.3617 452.607 50.7402 452.871 52.0701C453.136 53.4 453.788 54.6215 454.746 55.5803C455.704 56.5391 456.924 57.1921 458.253 57.4566C459.581 57.7211 460.959 57.5854 462.21 57.0665C463.462 56.5476 464.531 55.6689 465.284 54.5414C466.037 53.414 466.438 52.0885 466.438 50.7326C466.436 48.915 465.714 47.1724 464.43 45.8871C463.146 44.6019 461.405 43.8789 459.589 43.8768Z" fill="#3F3D56"/>
<path d="M278.767 173.451H260.959V155.626H278.767V173.451ZM262.329 172.079H277.397V156.997H262.329V172.079Z" fill="#3F3D56"/>
<path d="M550 306.452H532.192V288.627H550V306.452ZM533.562 305.081H548.63V289.998H533.562V305.081Z" fill="#3F3D56"/>
<path d="M198.632 186.933L201.688 188.581L212.087 194.191L228.874 203.244L238.658 185.075C239.579 183.368 240.155 181.496 240.353 179.566C240.551 177.636 240.366 175.685 239.81 173.827C239.253 171.968 238.336 170.237 237.111 168.734C235.886 167.23 234.376 165.983 232.669 165.064C229.02 163.092 224.84 162.33 220.732 162.888C216.623 163.446 212.797 165.295 209.805 168.169L209.8 168.174C208.328 169.589 207.086 171.226 206.118 173.025L198.632 186.933Z" fill="#2F2E41"/>
<path d="M244.452 372.224L242.401 394.806L234.71 395.833L229.582 370.171L244.452 372.224Z" fill="#FFB8B8"/>
<path d="M232.659 395.833C232.659 395.833 242.401 390.701 244.452 394.807C244.452 394.807 242.914 407.124 249.067 408.664C255.22 410.204 257.784 420.982 249.067 422.008C240.35 423.035 234.71 419.955 231.633 419.955C228.557 419.955 231.633 409.177 231.633 409.177L232.659 395.833Z" fill="#2F2E41"/>
<path d="M182.408 372.224L184.46 394.806L192.151 395.833L197.278 370.171L182.408 372.224Z" fill="#FFB8B8"/>
<path d="M194.202 395.833C194.202 395.833 184.459 390.701 182.408 394.807C182.408 394.807 183.947 407.124 177.793 408.664C171.64 410.204 169.076 420.982 177.793 422.008C186.51 423.035 192.151 419.955 195.227 419.955C198.304 419.955 195.227 409.177 195.227 409.177L194.202 395.833Z" fill="#2F2E41"/>
<path d="M224.455 191.05C231.817 191.05 237.786 185.075 237.786 177.705C237.786 170.335 231.817 164.361 224.455 164.361C217.092 164.361 211.123 170.335 211.123 177.705C211.123 185.075 217.092 191.05 224.455 191.05Z" fill="#FFB8B8"/>
<path d="M181.895 203.881L192.663 220.818L205.482 219.791L226.506 221.331C226.506 221.331 228.49 217.358 230.11 213.494C230.997 211.564 231.68 209.546 232.146 207.473C232.659 203.881 225.48 200.288 225.48 200.288C225.48 200.288 225.198 200.237 224.726 200.124C224.101 199.975 223.137 199.729 222.08 199.369C219.696 198.558 216.83 197.183 216.25 195.156C215.225 191.563 222.916 186.43 222.916 186.43L213.687 177.705C213.687 177.705 205.488 189.104 195.53 191.701C194.952 191.854 194.367 191.974 193.776 192.061C193.745 192.066 193.72 192.071 193.689 192.076C182.921 193.616 181.895 203.881 181.895 203.881Z" fill="#FFB8B8"/>
<path d="M187.536 199.261L181.895 203.881C181.895 203.881 177.281 225.95 178.819 232.109C180.357 238.268 178.306 243.913 178.306 244.94C178.306 245.966 173.691 284.46 173.691 284.46C173.691 284.46 164.462 304.989 174.204 302.936C183.946 300.883 180.357 280.354 180.357 280.354L192.151 244.427V214.146L187.536 199.261Z" fill="#FFB8B8"/>
<path d="M228.044 203.367L232.146 206.447L234.197 249.559L249.58 286.513C249.58 286.513 260.86 304.476 253.682 304.989C246.503 305.502 241.888 286.513 241.888 286.513L228.044 251.099L225.993 216.712L228.044 203.367Z" fill="#FFB8B8"/>
<path d="M202.406 206.447C202.406 206.447 212.661 213.632 229.069 211.066C229.069 211.066 233.684 220.304 231.12 225.437C228.557 230.569 234.197 242.887 235.222 244.427C236.248 245.966 248.041 277.787 252.143 312.175C256.246 346.562 267.526 370.171 257.784 373.25C248.041 376.33 228.044 379.922 225.993 376.843C223.942 373.764 220.865 297.291 220.865 297.291L215.225 326.545C215.225 326.545 222.916 376.33 217.276 377.356C211.635 378.383 176.255 375.303 177.281 369.144C178.306 362.986 188.561 330.651 188.561 330.651C188.561 330.651 188.049 265.983 198.304 253.665C198.304 253.665 202.406 246.993 196.765 238.268C191.125 229.543 191.638 215.685 191.638 215.685C191.638 215.685 195.74 215.685 202.406 206.447Z" fill="#2F2E41"/>
<path d="M193.776 192.061L202.406 211.066L204.457 210.04L195.529 191.701L193.776 192.061Z" fill="#2F2E41"/>
<path d="M222.08 199.369L228.557 213.632L230.11 213.494L229.582 211.066L224.726 200.124C224.101 199.975 223.137 199.729 222.08 199.369Z" fill="#2F2E41"/>
<path d="M201.688 188.581C202.181 190.169 203.131 191.575 204.419 192.625C205.708 193.675 207.277 194.321 208.93 194.482C210.583 194.643 212.247 194.312 213.714 193.531C215.18 192.75 216.384 191.553 217.173 190.09C210.687 181.601 216.25 176.268 226.788 172.234C227.581 170.76 227.919 169.082 227.757 167.415C227.596 165.748 226.942 164.167 225.88 162.873C222.976 162.501 220.025 162.783 217.244 163.7C214.462 164.616 211.921 166.143 209.805 168.169L209.8 168.174L202.314 182.073C201.78 183.061 201.45 184.146 201.343 185.264C201.235 186.381 201.353 187.509 201.688 188.581Z" fill="#2F2E41"/>
<path d="M216.507 182.325C217.498 182.325 218.301 180.946 218.301 179.245C218.301 177.544 217.498 176.166 216.507 176.166C215.516 176.166 214.712 177.544 214.712 179.245C214.712 180.946 215.516 182.325 216.507 182.325Z" fill="#FFB8B8"/>
<path d="M221.855 174.22L237.268 181.211L240.094 174.97C239.607 172.689 238.588 170.555 237.12 168.744L226.511 163.935L221.855 174.22Z" fill="#2F2E41"/>
<path d="M258.904 311.937C262.687 311.937 265.753 308.867 265.753 305.081C265.753 301.295 262.687 298.225 258.904 298.225C255.121 298.225 252.055 301.295 252.055 305.081C252.055 308.867 255.121 311.937 258.904 311.937Z" fill="#0F7173"/>
<path d="M39.0113 352.692C41.4835 352.692 43.4876 350.686 43.4876 348.211C43.4876 345.737 41.4835 343.731 39.0113 343.731C36.5391 343.731 34.535 345.737 34.535 348.211C34.535 350.686 36.5391 352.692 39.0113 352.692Z" fill="#FF6584"/>
<path d="M61.6268 371.563H60.2569V422.578H61.6268V371.563Z" fill="#3F3D56"/>
<path d="M60.942 378.777C64.9225 378.777 68.1494 375.547 68.1494 371.563C68.1494 367.579 64.9225 364.349 60.942 364.349C56.9614 364.349 53.7346 367.579 53.7346 371.563C53.7346 375.547 56.9614 378.777 60.942 378.777Z" fill="#3F3D56"/>
<path d="M60.942 403.004C60.942 403.004 59.9123 380.838 38.8049 383.415L60.942 403.004Z" fill="#3F3D56"/>
</svg>
